<?xml version="1.0" encoding="UTF-8"?>
<!DOCTYPE svg PUBLIC "-//W3C//DTD SVG 1.1//EN" "http://www.w3.org/Graphics/SVG/1.1/DTD/svg11.dtd">
<svg xmlns="http://www.w3.org/2000/svg" version="1.1" width="1004px" height="336px" style="shape-rendering:geometricPrecision; text-rendering:geometricPrecision; image-rendering:optimizeQuality; fill-rule:evenodd; clip-rule:evenodd" xmlns:xlink="http://www.w3.org/1999/xlink">
<g><path style="opacity:0" fill="#fefefe" d="M -0.5,-0.5 C 334.167,-0.5 668.833,-0.5 1003.5,-0.5C 1003.5,111.5 1003.5,223.5 1003.5,335.5C 668.833,335.5 334.167,335.5 -0.5,335.5C -0.5,223.5 -0.5,111.5 -0.5,-0.5 Z"/></g>
<g><path style="opacity:1" fill="#f4b8b5" d="M 647.5,34.5 C 649.833,34.8333 651.167,36.1667 651.5,38.5C 649.833,37.5 648.5,36.1667 647.5,34.5 Z"/></g>
<g><path style="opacity:1" fill="#f2b0ae" d="M 816.5,34.5 C 817.209,33.596 818.209,33.2627 819.5,33.5C 819.802,36.0593 819.468,38.3926 818.5,40.5C 818.975,37.9179 818.308,35.9179 816.5,34.5 Z"/></g>
<g><path style="opacity:1" fill="#ee9692" d="M 644.5,33.5 C 645.791,33.2627 646.791,33.596 647.5,34.5C 645.692,35.9179 645.025,37.9179 645.5,40.5C 644.532,38.3926 644.198,36.0593 644.5,33.5 Z"/></g>
<g><path style="opacity:1" fill="#e76560" d="M 647.5,34.5 C 648.5,36.1667 649.833,37.5 651.5,38.5C 653.226,40.2279 654.559,42.2279 655.5,44.5C 655.427,46.0269 656.094,47.0269 657.5,47.5C 659.297,49.4338 660.297,51.7671 660.5,54.5C 660.755,56.9674 661.755,58.9674 663.5,60.5C 663.5,60.8333 663.5,61.1667 663.5,61.5C 664.796,68.8204 664.796,76.1537 663.5,83.5C 662.89,84.391 662.557,85.391 662.5,86.5C 661.094,86.9731 660.427,87.9731 660.5,89.5C 658.147,91.8599 656.147,94.5265 654.5,97.5C 654.5,98.1667 654.167,98.5 653.5,98.5C 651.246,99.1237 649.579,100.457 648.5,102.5C 642.424,105.877 637.091,110.211 632.5,115.5C 631.167,116.167 630.167,117.167 629.5,118.5C 627.11,119.891 625.443,121.891 624.5,124.5C 622.738,125.262 621.738,126.596 621.5,128.5C 620.167,129.167 619.167,130.167 618.5,131.5C 616.674,133.147 615.34,135.147 614.5,137.5C 611.863,139.482 610.53,142.148 610.5,145.5C 609.463,146.93 608.796,148.597 608.5,150.5C 606.926,152.102 606.259,154.102 606.5,156.5C 606.5,156.833 606.5,157.167 606.5,157.5C 605.883,157.611 605.383,157.944 605,158.5C 604.184,163.684 604.35,168.684 605.5,173.5C 606.268,175.715 606.935,178.048 607.5,180.5C 607.5,182.5 608.5,183.5 610.5,183.5C 611.29,184.401 612.29,185.068 613.5,185.5C 616.486,188.444 620.153,190.111 624.5,190.5C 624.611,191.117 624.944,191.617 625.5,192C 628.827,192.61 632.161,193.11 635.5,193.5C 636.833,193.833 638.167,194.167 639.5,194.5C 643.911,196.13 648.578,197.13 653.5,197.5C 657.919,198.972 662.586,199.638 667.5,199.5C 669.635,201.369 672.302,202.036 675.5,201.5C 680.152,201.998 684.819,202.331 689.5,202.5C 692.689,203.166 696.023,203.833 699.5,204.5C 699.137,205.183 698.804,205.85 698.5,206.5C 695.802,206.845 693.802,208.178 692.5,210.5C 691.005,210.989 689.671,211.655 688.5,212.5C 682.581,216.083 677.248,220.416 672.5,225.5C 672.5,226.167 672.167,226.5 671.5,226.5C 665.694,231.636 661.027,237.636 657.5,244.5C 656.094,244.973 655.427,245.973 655.5,247.5C 653.178,248.802 651.845,250.802 651.5,253.5C 649.755,255.033 648.755,257.033 648.5,259.5C 648.5,259.833 648.5,260.167 648.5,260.5C 645.201,264.795 643.201,269.795 642.5,275.5C 640.787,276.635 640.12,278.302 640.5,280.5C 639.656,284.099 639.323,287.766 639.5,291.5C 638.167,291.5 637.5,290.833 637.5,289.5C 637.204,287.597 636.537,285.93 635.5,284.5C 635.573,282.973 634.906,281.973 633.5,281.5C 632.92,279.251 631.587,277.585 629.5,276.5C 620.14,267.159 609.807,258.825 598.5,251.5C 594.154,248.152 590.154,244.485 586.5,240.5C 585.833,239.167 584.833,238.167 583.5,237.5C 582.833,236.167 581.833,235.167 580.5,234.5C 579.833,233.167 578.833,232.167 577.5,231.5C 575.804,229.475 574.137,227.475 572.5,225.5C 572.573,223.973 571.906,222.973 570.5,222.5C 570.167,221.833 569.833,221.167 569.5,220.5C 569.715,218.821 569.048,217.821 567.5,217.5C 567.245,215.033 566.245,213.033 564.5,211.5C 564.167,210.167 563.833,208.833 563.5,207.5C 563.468,203.017 562.468,199.017 560.5,195.5C 560.5,188.167 560.5,180.833 560.5,173.5C 561.338,173.158 561.672,172.492 561.5,171.5C 562.924,169.485 563.59,167.152 563.5,164.5C 563.557,163.391 563.89,162.391 564.5,161.5C 565.993,159.098 566.993,156.431 567.5,153.5C 567.5,153.167 567.5,152.833 567.5,152.5C 569.245,150.967 570.245,148.967 570.5,146.5C 571.5,145.167 572.5,143.833 573.5,142.5C 575.408,141.514 576.408,139.848 576.5,137.5C 577.974,136.564 578.974,135.23 579.5,133.5C 579.328,132.508 579.662,131.842 580.5,131.5C 583.645,128.54 586.312,125.207 588.5,121.5C 591.573,119.431 593.906,116.764 595.5,113.5C 595.5,112.167 596.167,111.5 597.5,111.5C 599.262,110.738 600.262,109.404 600.5,107.5C 602.5,107.5 603.5,106.5 603.5,104.5C 605.5,104.5 606.5,103.5 606.5,101.5C 608.027,101.573 609.027,100.906 609.5,99.5C 609.5,98.8333 609.833,98.5 610.5,98.5C 613.784,96.883 616.451,94.5497 618.5,91.5C 620.183,89.4864 622.183,87.8198 624.5,86.5C 628.049,85.2768 631.049,83.2768 633.5,80.5C 634.436,79.0256 635.77,78.0256 637.5,77.5C 639.935,76.7298 641.269,75.0632 641.5,72.5C 642.11,71.609 642.443,70.609 642.5,69.5C 643.906,69.0269 644.573,68.0269 644.5,66.5C 645.268,65.7375 645.768,64.7375 646,63.5C 646.821,56.6536 646.654,49.987 645.5,43.5C 645.5,42.5 645.5,41.5 645.5,40.5C 645.025,37.9179 645.692,35.9179 647.5,34.5 Z"/></g>
<g><path style="opacity:1" fill="#e76560" d="M 817.5,44.5 C 817.334,50.5092 817.501,56.5092 818,62.5C 818.278,63.4158 818.778,64.0825 819.5,64.5C 821.783,73.3964 827.116,79.7298 835.5,83.5C 836.262,85.2624 837.596,86.2624 839.5,86.5C 840.579,88.543 842.246,89.8763 844.5,90.5C 845.911,92.914 847.911,94.5806 850.5,95.5C 852.239,98.2427 854.573,100.243 857.5,101.5C 860.925,105.715 864.592,109.715 868.5,113.5C 868.427,115.027 869.094,116.027 870.5,116.5C 871.757,119.427 873.757,121.761 876.5,123.5C 878.262,124.262 879.262,125.596 879.5,127.5C 880.529,130.891 882.529,133.557 885.5,135.5C 887.218,137.223 888.551,139.223 889.5,141.5C 890.179,144.707 891.346,147.707 893,150.5C 893.708,151.381 894.542,152.047 895.5,152.5C 896.674,153.514 897.34,154.847 897.5,156.5C 897.759,159.272 898.759,161.605 900.5,163.5C 900.878,165.921 901.545,168.254 902.5,170.5C 902.5,171.167 902.5,171.833 902.5,172.5C 902.672,182.857 902.339,193.19 901.5,203.5C 901.371,205.216 901.038,206.883 900.5,208.5C 898.992,210.181 897.992,212.181 897.5,214.5C 895.755,216.033 894.755,218.033 894.5,220.5C 891.723,222.951 889.723,225.951 888.5,229.5C 883.52,234.145 878.52,238.812 873.5,243.5C 871.861,244.473 870.527,245.806 869.5,247.5C 867.251,248.08 865.585,249.413 864.5,251.5C 860.54,253.468 857.207,256.135 854.5,259.5C 852.368,259.554 851.035,260.554 850.5,262.5C 847.883,263.786 845.55,265.453 843.5,267.5C 841.859,268.147 840.526,269.147 839.5,270.5C 838.167,271.167 837.167,272.167 836.5,273.5C 835.272,274.306 834.272,275.306 833.5,276.5C 832.094,276.973 831.427,277.973 831.5,279.5C 829.75,280.659 828.75,282.326 828.5,284.5C 826.753,285.981 825.586,287.981 825,290.5C 824.821,286.975 824.321,283.641 823.5,280.5C 822.833,280.5 822.5,280.167 822.5,279.5C 822.634,277.708 822.301,276.042 821.5,274.5C 821.693,271.189 820.693,268.522 818.5,266.5C 818.5,266.167 818.5,265.833 818.5,265.5C 818.573,263.973 817.906,262.973 816.5,262.5C 815.35,259.702 814.017,257.035 812.5,254.5C 812.573,252.973 811.906,251.973 810.5,251.5C 810.672,250.508 810.338,249.842 809.5,249.5C 809.573,247.973 808.906,246.973 807.5,246.5C 807.573,244.973 806.906,243.973 805.5,243.5C 799.724,235.555 793.39,228.055 786.5,221C 781.985,217.97 777.651,214.803 773.5,211.5C 772.341,209.75 770.674,208.75 768.5,208.5C 768.027,207.094 767.027,206.427 765.5,206.5C 763.5,206.167 761.5,205.833 759.5,205.5C 758.167,204.5 758.167,203.5 759.5,202.5C 765.358,202.822 771.025,202.489 776.5,201.5C 777.167,201.5 777.833,201.5 778.5,201.5C 785.528,201.094 792.528,200.427 799.5,199.5C 801.861,199.326 804.194,198.993 806.5,198.5C 809.698,199.036 812.365,198.369 814.5,196.5C 815.833,196.5 817.167,196.5 818.5,196.5C 820.898,196.741 822.898,196.074 824.5,194.5C 826.435,193.85 828.435,193.517 830.5,193.5C 833.428,193.435 836.095,192.768 838.5,191.5C 838.842,190.662 839.508,190.328 840.5,190.5C 845.446,190.197 849.446,188.197 852.5,184.5C 854.226,182.772 855.559,180.772 856.5,178.5C 857.222,178.082 857.722,177.416 858,176.5C 858.667,170.5 858.667,164.5 858,158.5C 857.722,157.584 857.222,156.918 856.5,156.5C 856.634,154.708 856.301,153.042 855.5,151.5C 855.092,147.142 853.426,143.476 850.5,140.5C 848.227,135.606 845.227,131.273 841.5,127.5C 839.853,124.527 837.853,121.86 835.5,119.5C 832.719,116.264 829.719,113.264 826.5,110.5C 825.522,107.675 823.522,106.342 820.5,106.5C 818.869,104.357 816.869,102.69 814.5,101.5C 813.415,99.4131 811.749,98.0798 809.5,97.5C 808.5,97.1667 807.833,96.5 807.5,95.5C 806.136,93.8089 804.803,92.1423 803.5,90.5C 803.573,88.9731 802.906,87.9731 801.5,87.5C 801.244,84.4021 800.578,81.4021 799.5,78.5C 799.701,72.491 800.034,66.491 800.5,60.5C 801.458,58.6976 802.125,56.6976 802.5,54.5C 805.158,50.2447 807.824,45.9113 810.5,41.5C 810.427,39.9731 811.094,38.9731 812.5,38.5C 814.384,38.2882 815.717,37.2882 816.5,35.5C 817.484,38.4281 817.817,41.4281 817.5,44.5 Z"/></g>
<g><path style="opacity:1" fill="#ec8884" d="M 816.5,34.5 C 818.308,35.9179 818.975,37.9179 818.5,40.5C 818.5,41.8333 818.5,43.1667 818.5,44.5C 818.167,44.5 817.833,44.5 817.5,44.5C 817.817,41.4281 817.484,38.4281 816.5,35.5C 815.717,37.2882 814.384,38.2882 812.5,38.5C 813.402,36.6593 814.736,35.326 816.5,34.5 Z"/></g>
<g><path style="opacity:1" fill="#eb827e" d="M 645.5,43.5 C 646.654,49.987 646.821,56.6536 646,63.5C 645.768,64.7375 645.268,65.7375 644.5,66.5C 645.358,58.8678 645.691,51.2011 645.5,43.5 Z"/></g>
<g><path style="opacity:1" fill="#f1a4a1" d="M 655.5,44.5 C 656.906,44.9731 657.573,45.9731 657.5,47.5C 656.094,47.0269 655.427,46.0269 655.5,44.5 Z"/></g>
<g><path style="opacity:1" fill="#f5bcba" d="M 810.5,41.5 C 807.824,45.9113 805.158,50.2447 802.5,54.5C 802.343,53.1266 802.51,51.7932 803,50.5C 804.889,48.5172 806.222,46.1838 807,43.5C 807.816,42.1772 808.983,41.5106 810.5,41.5 Z"/></g>
<g><path style="opacity:1" fill="#f8d3d1" d="M 644.5,33.5 C 644.198,36.0593 644.532,38.3926 645.5,40.5C 645.5,41.5 645.5,42.5 645.5,43.5C 645.691,51.2011 645.358,58.8678 644.5,66.5C 644.573,68.0269 643.906,69.0269 642.5,69.5C 643.725,63.9203 644.392,58.2536 644.5,52.5C 643.62,45.9941 643.62,39.6608 644.5,33.5 Z"/></g>
<g><path style="opacity:1" fill="#f4b6b4" d="M 660.5,54.5 C 662.379,55.8952 663.379,57.8952 663.5,60.5C 661.755,58.9674 660.755,56.9674 660.5,54.5 Z"/></g>
<g><path style="opacity:1" fill="#f1a5a1" d="M 817.5,44.5 C 817.833,44.5 818.167,44.5 818.5,44.5C 818.336,51.2022 818.669,57.8689 819.5,64.5C 818.778,64.0825 818.278,63.4158 818,62.5C 817.501,56.5092 817.334,50.5092 817.5,44.5 Z"/></g>
<g><path style="opacity:1" fill="#f6c7c5" d="M 663.5,61.5 C 664.117,61.6107 664.617,61.944 665,62.5C 665.667,69.1667 665.667,75.8333 665,82.5C 664.617,83.056 664.117,83.3893 663.5,83.5C 664.796,76.1537 664.796,68.8204 663.5,61.5 Z"/></g>
<g><path style="opacity:1" fill="#fbe4e2" d="M 798.5,64.5 C 798.181,69.3633 798.514,74.03 799.5,78.5C 800.578,81.4021 801.244,84.4021 801.5,87.5C 799.745,85.2388 798.578,82.5722 798,79.5C 797.184,74.3158 797.35,69.3158 798.5,64.5 Z"/></g>
<g><path style="opacity:1" fill="#f1a5a2" d="M 800.5,60.5 C 800.034,66.491 799.701,72.491 799.5,78.5C 798.514,74.03 798.181,69.3633 798.5,64.5C 799.167,63.1667 799.833,61.8333 800.5,60.5 Z"/></g>
<g><path style="opacity:1" fill="#ed8782" d="M 641.5,72.5 C 641.269,75.0632 639.935,76.7298 637.5,77.5C 638.46,75.5393 639.793,73.8726 641.5,72.5 Z"/></g>
<g><path style="opacity:1" fill="#f1a3a0" d="M 633.5,80.5 C 631.049,83.2768 628.049,85.2768 624.5,86.5C 626.951,83.7232 629.951,81.7232 633.5,80.5 Z"/></g>
<g><path style="opacity:1" fill="#f7c8c6" d="M 835.5,83.5 C 837.404,83.7376 838.738,84.7376 839.5,86.5C 837.596,86.2624 836.262,85.2624 835.5,83.5 Z"/></g>
<g><path style="opacity:1" fill="#f4b4b2" d="M 662.5,86.5 C 662.573,88.0269 661.906,89.0269 660.5,89.5C 660.427,87.9731 661.094,86.9731 662.5,86.5 Z"/></g>
<g><path style="opacity:1" fill="#f5bab8" d="M 801.5,87.5 C 802.906,87.9731 803.573,88.9731 803.5,90.5C 802.094,90.0269 801.427,89.0269 801.5,87.5 Z"/></g>
<g><path style="opacity:1" fill="#f7c7c5" d="M 844.5,90.5 C 847.089,91.4194 849.089,93.086 850.5,95.5C 847.911,94.5806 845.911,92.914 844.5,90.5 Z"/></g>
<g><path style="opacity:1" fill="#f5b8b5" d="M 660.5,89.5 C 659.59,93.0651 657.59,95.7317 654.5,97.5C 656.147,94.5265 658.147,91.8599 660.5,89.5 Z"/></g>
<g><path style="opacity:1" fill="#f8d3d1" d="M 803.5,90.5 C 804.803,92.1423 806.136,93.8089 807.5,95.5C 804.516,95.2132 803.183,93.5465 803.5,90.5 Z"/></g>
<g><path style="opacity:1" fill="#f09d99" d="M 618.5,91.5 C 616.451,94.5497 613.784,96.883 610.5,98.5C 612.523,95.4797 615.19,93.1464 618.5,91.5 Z"/></g>
<g><path style="opacity:1" fill="#f7c9c7" d="M 850.5,95.5 C 853.427,96.7573 855.761,98.7573 857.5,101.5C 854.573,100.243 852.239,98.2427 850.5,95.5 Z"/></g>
<g><path style="opacity:1" fill="#f09b97" d="M 809.5,97.5 C 811.749,98.0798 813.415,99.4131 814.5,101.5C 812.251,100.92 810.585,99.5869 809.5,97.5 Z"/></g>
<g><path style="opacity:1" fill="#f09e9b" d="M 609.5,99.5 C 609.027,100.906 608.027,101.573 606.5,101.5C 606.973,100.094 607.973,99.427 609.5,99.5 Z"/></g>
<g><path style="opacity:1" fill="#f7cac8" d="M 653.5,98.5 C 652.461,100.531 650.795,101.864 648.5,102.5C 649.579,100.457 651.246,99.1237 653.5,98.5 Z"/></g>
<g><path style="opacity:1" fill="#f09c98" d="M 606.5,101.5 C 606.5,103.5 605.5,104.5 603.5,104.5C 604.167,103.167 605.167,102.167 606.5,101.5 Z"/></g>
<g><path style="opacity:1" fill="#ec8581" d="M 52.5,105.5 C 51.8623,114.895 52.5289,123.895 54.5,132.5C 53.791,133.404 52.791,133.737 51.5,133.5C 51.5,124.5 51.5,115.5 51.5,106.5C 47.8333,106.5 44.1667,106.5 40.5,106.5C 40.5,137.833 40.5,169.167 40.5,200.5C 43.5,200.5 46.5,200.5 49.5,200.5C 46.3752,201.479 43.0419,201.813 39.5,201.5C 39.5,169.5 39.5,137.5 39.5,105.5C 43.8333,105.5 48.1667,105.5 52.5,105.5 Z"/></g>
<g><path style="opacity:1" fill="#e76661" d="M 54.5,132.5 C 54.5,132.167 54.5,131.833 54.5,131.5C 54.8333,131.5 55.1667,131.5 55.5,131.5C 60.359,129.331 65.359,128.998 70.5,130.5C 73.1667,131.167 74.8333,132.833 75.5,135.5C 75.8333,136.833 76.1667,138.167 76.5,139.5C 77.4373,155.138 77.7706,170.805 77.5,186.5C 76.5386,188.265 76.2053,190.265 76.5,192.5C 75.596,193.209 75.2627,194.209 75.5,195.5C 73.8564,195.81 72.8564,196.81 72.5,198.5C 68.5998,201.037 64.2664,202.037 59.5,201.5C 56.2623,200.262 53.5956,198.262 51.5,195.5C 51.44,194.957 51.1067,194.624 50.5,194.5C 49.5344,196.396 49.2011,198.396 49.5,200.5C 46.5,200.5 43.5,200.5 40.5,200.5C 40.5,169.167 40.5,137.833 40.5,106.5C 44.1667,106.5 47.8333,106.5 51.5,106.5C 51.5,115.5 51.5,124.5 51.5,133.5C 52.791,133.737 53.791,133.404 54.5,132.5 Z"/></g>
<g><path style="opacity:1" fill="#f5c6c4" d="M 52.5,105.5 C 53.1667,114.167 53.8333,122.833 54.5,131.5C 54.5,131.833 54.5,132.167 54.5,132.5C 52.5289,123.895 51.8623,114.895 52.5,105.5 Z"/></g>
<g><path style="opacity:1" fill="#f9d8d7" d="M 195.5,105.5 C 191.298,105.183 187.298,105.517 183.5,106.5C 182.502,137.662 182.168,168.996 182.5,200.5C 181.336,169.003 181.169,137.336 182,105.5C 186.6,104.177 191.1,104.177 195.5,105.5 Z"/></g>
<g><path style="opacity:1" fill="#f1a7a4" d="M 183.5,106.5 C 183.5,137.833 183.5,169.167 183.5,200.5C 187.5,200.5 191.5,200.5 195.5,200.5C 195.5,200.833 195.5,201.167 195.5,201.5C 190.968,201.818 186.634,201.485 182.5,200.5C 182.168,168.996 182.502,137.662 183.5,106.5 Z"/></g>
<g><path style="opacity:1" fill="#e76762" d="M 183.5,106.5 C 187.167,106.5 190.833,106.5 194.5,106.5C 194.334,115.506 194.5,124.506 195,133.5C 197.108,134.612 198.608,133.946 199.5,131.5C 204.303,129.758 209.303,129.091 214.5,129.5C 217.445,130.445 219.445,132.445 220.5,135.5C 220.565,138.428 221.232,141.095 222.5,143.5C 222.5,162.5 222.5,181.5 222.5,200.5C 218.167,200.5 213.833,200.5 209.5,200.5C 209.83,180.326 209.497,160.326 208.5,140.5C 208.586,139.504 208.252,138.671 207.5,138C 204.833,137.333 202.167,137.333 199.5,138C 198.944,138.383 198.611,138.883 198.5,139.5C 197.531,140.309 196.698,141.309 196,142.5C 195.5,161.83 195.333,181.164 195.5,200.5C 191.5,200.5 187.5,200.5 183.5,200.5C 183.5,169.167 183.5,137.833 183.5,106.5 Z"/></g>
<g><path style="opacity:1" fill="#ec8681" d="M 183.5,106.5 C 187.298,105.517 191.298,105.183 195.5,105.5C 195.168,114.525 195.502,123.525 196.5,132.5C 197.417,131.873 198.417,131.539 199.5,131.5C 198.608,133.946 197.108,134.612 195,133.5C 194.5,124.506 194.334,115.506 194.5,106.5C 190.833,106.5 187.167,106.5 183.5,106.5 Z"/></g>
<g><path style="opacity:1" fill="#ef9995" d="M 603.5,104.5 C 603.5,106.5 602.5,107.5 600.5,107.5C 601.167,106.167 602.167,105.167 603.5,104.5 Z"/></g>
<g><path style="opacity:1" fill="#ed8c88" d="M 820.5,106.5 C 823.522,106.342 825.522,107.675 826.5,110.5C 824.223,109.551 822.223,108.218 820.5,106.5 Z"/></g>
<g><path style="opacity:1" fill="#ef9692" d="M 600.5,107.5 C 600.262,109.404 599.262,110.738 597.5,111.5C 597.738,109.596 598.738,108.262 600.5,107.5 Z"/></g>
<g><path style="opacity:1" fill="#f6c6c4" d="M 648.5,102.5 C 643.542,107.31 638.209,111.643 632.5,115.5C 637.091,110.211 642.424,105.877 648.5,102.5 Z"/></g>
<g><path style="opacity:1" fill="#e76963" d="M 174.5,122.5 C 169.5,122.5 164.5,122.5 159.5,122.5C 159.5,148.5 159.5,174.5 159.5,200.5C 155.5,200.5 151.5,200.5 147.5,200.5C 147.831,174.328 147.498,148.328 146.5,122.5C 141.833,122.5 137.167,122.5 132.5,122.5C 132.5,118.833 132.5,115.167 132.5,111.5C 146.5,111.5 160.5,111.5 174.5,111.5C 174.5,115.167 174.5,118.833 174.5,122.5 Z"/></g>
<g><path style="opacity:1" fill="#f9d8d7" d="M 297.5,111.5 C 293.298,111.183 289.298,111.517 285.5,112.5C 284.502,141.662 284.169,170.995 284.5,200.5C 283.336,171.003 283.169,141.336 284,111.5C 288.6,110.177 293.1,110.177 297.5,111.5 Z"/></g>
<g><path style="opacity:1" fill="#f1a7a4" d="M 285.5,112.5 C 285.169,142.005 285.502,171.338 286.5,200.5C 290.167,200.5 293.833,200.5 297.5,200.5C 297.5,200.833 297.5,201.167 297.5,201.5C 292.968,201.818 288.634,201.485 284.5,200.5C 284.169,170.995 284.502,141.662 285.5,112.5 Z"/></g>
<g><path style="opacity:1" fill="#ea7671" d="M 297.5,111.5 C 297.5,111.833 297.5,112.167 297.5,112.5C 293.833,112.5 290.167,112.5 286.5,112.5C 286.5,141.833 286.5,171.167 286.5,200.5C 285.502,171.338 285.169,142.005 285.5,112.5C 289.298,111.517 293.298,111.183 297.5,111.5 Z"/></g>
<g><path style="opacity:1" fill="#e76560" d="M 297.5,112.5 C 297.333,124.505 297.5,136.505 298,148.5C 303.599,149.825 309.099,149.825 314.5,148.5C 315.495,136.678 315.828,124.678 315.5,112.5C 319.167,112.5 322.833,112.5 326.5,112.5C 326.5,141.833 326.5,171.167 326.5,200.5C 322.5,200.5 318.5,200.5 314.5,200.5C 314.5,186.5 314.5,172.5 314.5,158.5C 308.833,158.5 303.167,158.5 297.5,158.5C 297.5,172.5 297.5,186.5 297.5,200.5C 293.833,200.5 290.167,200.5 286.5,200.5C 286.5,171.167 286.5,141.833 286.5,112.5C 290.167,112.5 293.833,112.5 297.5,112.5 Z"/></g>
<g><path style="opacity:1" fill="#f6c5c3" d="M 297.5,111.5 C 299.479,123.12 300.146,135.12 299.5,147.5C 304.167,147.5 308.833,147.5 313.5,147.5C 313.172,135.322 313.505,123.322 314.5,111.5C 314.5,123.833 314.5,136.167 314.5,148.5C 309.099,149.825 303.599,149.825 298,148.5C 297.5,136.505 297.333,124.505 297.5,112.5C 297.5,112.167 297.5,111.833 297.5,111.5 Z"/></g>
<g><path style="opacity:1" fill="#eb827d" d="M 314.5,111.5 C 318.833,111.5 323.167,111.5 327.5,111.5C 327.831,141.338 327.498,171.005 326.5,200.5C 326.5,171.167 326.5,141.833 326.5,112.5C 322.833,112.5 319.167,112.5 315.5,112.5C 315.828,124.678 315.495,136.678 314.5,148.5C 314.5,136.167 314.5,123.833 314.5,111.5 Z"/></g>
<g><path style="opacity:1" fill="#f9dcdb" d="M 327.5,111.5 C 329.492,141.148 330.159,171.148 329.5,201.5C 324.305,201.821 319.305,201.487 314.5,200.5C 318.5,200.5 322.5,200.5 326.5,200.5C 327.498,171.005 327.831,141.338 327.5,111.5 Z"/></g>
<g><path style="opacity:1" fill="#f1a19e" d="M 868.5,113.5 C 869.906,113.973 870.573,114.973 870.5,116.5C 869.094,116.027 868.427,115.027 868.5,113.5 Z"/></g>
<g><path style="opacity:1" fill="#f09a96" d="M 595.5,113.5 C 593.906,116.764 591.573,119.431 588.5,121.5C 590.094,118.236 592.427,115.569 595.5,113.5 Z"/></g>
<g><path style="opacity:1" fill="#ef9793" d="M 870.5,116.5 C 873.243,118.239 875.243,120.573 876.5,123.5C 873.757,121.761 871.757,119.427 870.5,116.5 Z"/></g>
<g><path style="opacity:1" fill="#f6c3c1" d="M 629.5,118.5 C 628.527,121.135 626.86,123.135 624.5,124.5C 625.443,121.891 627.11,119.891 629.5,118.5 Z"/></g>
<g><path style="opacity:1" fill="#f9d4d2" d="M 835.5,119.5 C 837.853,121.86 839.853,124.527 841.5,127.5C 838.41,125.732 836.41,123.065 835.5,119.5 Z"/></g>
<g><path style="opacity:1" fill="#f9d9d8" d="M 132.5,122.5 C 137.167,122.5 141.833,122.5 146.5,122.5C 146.5,148.5 146.5,174.5 146.5,200.5C 145.502,175.005 145.169,149.339 145.5,123.5C 140.968,123.818 136.634,123.485 132.5,122.5 Z"/></g>
<g><path style="opacity:1" fill="#f1a7a4" d="M 146.5,122.5 C 147.498,148.328 147.831,174.328 147.5,200.5C 151.5,200.5 155.5,200.5 159.5,200.5C 159.5,200.833 159.5,201.167 159.5,201.5C 154.968,201.818 150.634,201.485 146.5,200.5C 146.5,174.5 146.5,148.5 146.5,122.5 Z"/></g>
<g><path style="opacity:1" fill="#f7c9c7" d="M 174.5,122.5 C 170.366,123.485 166.032,123.818 161.5,123.5C 162.158,149.855 161.491,175.855 159.5,201.5C 159.5,201.167 159.5,200.833 159.5,200.5C 159.5,174.5 159.5,148.5 159.5,122.5C 164.5,122.5 169.5,122.5 174.5,122.5 Z"/></g>
<g><path style="opacity:1" fill="#f1a19e" d="M 588.5,121.5 C 586.312,125.207 583.645,128.54 580.5,131.5C 582.208,127.428 584.874,124.095 588.5,121.5 Z"/></g>
<g><path style="opacity:1" fill="#f6bfbd" d="M 624.5,124.5 C 624.262,126.404 623.262,127.738 621.5,128.5C 621.738,126.596 622.738,125.262 624.5,124.5 Z"/></g>
<g><path style="opacity:1" fill="#fadbda" d="M 411.5,128.5 C 413.966,127.366 416.633,127.199 419.5,128C 421.141,129.129 422.141,130.629 422.5,132.5C 421.5,131.833 420.5,131.167 419.5,130.5C 419.389,129.883 419.056,129.383 418.5,129C 416.19,128.503 413.857,128.337 411.5,128.5 Z"/></g>
<g><path style="opacity:1" fill="#f2a9a5" d="M 99.5,131.5 C 95.4731,129.642 91.1398,128.975 86.5,129.5C 86.8333,132.167 87.1667,134.833 87.5,137.5C 85.8819,134.829 85.2153,131.829 85.5,128.5C 89.8461,128.334 94.1794,128.501 98.5,129C 99.2524,129.671 99.5858,130.504 99.5,131.5 Z"/></g>
<g><path style="opacity:1" fill="#f2aba7" d="M 128.5,138.5 C 127.833,139.5 127.167,140.5 126.5,141.5C 127.162,137.534 127.495,133.534 127.5,129.5C 123.833,129.5 120.167,129.5 116.5,129.5C 116.841,133.16 116.175,136.493 114.5,139.5C 114.942,135.846 115.276,132.179 115.5,128.5C 120.167,128.5 124.833,128.5 129.5,128.5C 128.793,131.786 128.46,135.119 128.5,138.5 Z"/></g>
<g><path style="opacity:1" fill="#ed8985" d="M 214.5,129.5 C 209.303,129.091 204.303,129.758 199.5,131.5C 199.881,130.069 200.881,129.236 202.5,129C 206.689,128.188 210.689,128.355 214.5,129.5 Z"/></g>
<g><path style="opacity:1" fill="#ee8e8a" d="M 264.5,130.5 C 257.349,128.846 250.349,129.18 243.5,131.5C 243.881,130.069 244.881,129.236 246.5,129C 251.833,128.333 257.167,128.333 262.5,129C 263.416,129.278 264.082,129.778 264.5,130.5 Z"/></g>
<g><path style="opacity:1" fill="#ec8782" d="M 367.5,129.5 C 361.311,129.035 355.311,129.702 349.5,131.5C 349.881,130.069 350.881,129.236 352.5,129C 357.684,128.184 362.684,128.35 367.5,129.5 Z"/></g>
<g><path style="opacity:1" fill="#ed8984" d="M 411.5,128.5 C 413.857,128.337 416.19,128.503 418.5,129C 419.056,129.383 419.389,129.883 419.5,130.5C 416.555,129.532 413.555,129.366 410.5,130C 408.395,131.131 406.395,132.297 404.5,133.5C 405.72,130.281 408.053,128.615 411.5,128.5 Z"/></g>
<g><path style="opacity:1" fill="#ee928d" d="M 70.5,130.5 C 65.359,128.998 60.359,129.331 55.5,131.5C 55.5774,130.25 56.244,129.417 57.5,129C 61.5,128.333 65.5,128.333 69.5,129C 70.056,129.383 70.3893,129.883 70.5,130.5 Z"/></g>
<g><path style="opacity:1" fill="#e76762" d="M 264.5,130.5 C 266.139,131.473 267.473,132.806 268.5,134.5C 268.427,136.027 269.094,137.027 270.5,137.5C 270.833,138.167 271.167,138.833 271.5,139.5C 271.666,148.173 271.5,156.84 271,165.5C 263.246,166.317 255.412,166.817 247.5,167C 246.884,168.4 246.551,169.9 246.5,171.5C 246.912,176.349 247.579,181.015 248.5,185.5C 250.363,191.805 254.197,193.138 260,189.5C 261.149,186.607 261.649,183.607 261.5,180.5C 264.833,180.5 268.167,180.5 271.5,180.5C 271.5,182.833 271.5,185.167 271.5,187.5C 270.85,189.435 270.517,191.435 270.5,193.5C 270.167,193.5 269.833,193.5 269.5,193.5C 268.326,194.514 267.66,195.847 267.5,197.5C 265.938,197.733 264.605,198.4 263.5,199.5C 257.5,200.833 251.5,200.833 245.5,199.5C 243.589,198.925 241.922,197.925 240.5,196.5C 240.262,194.596 239.262,193.262 237.5,192.5C 236.367,189.262 235.533,185.929 235,182.5C 234.5,171.505 234.333,160.505 234.5,149.5C 235.924,147.485 236.59,145.152 236.5,142.5C 236.971,140.421 237.637,138.421 238.5,136.5C 238.782,135.222 239.449,134.222 240.5,133.5C 242.027,133.573 243.027,132.906 243.5,131.5C 250.349,129.18 257.349,128.846 264.5,130.5 Z"/></g>
<g><path style="opacity:1" fill="#e76560" d="M 367.5,129.5 C 369.674,129.75 371.341,130.75 372.5,132.5C 373.167,133.833 374.167,134.833 375.5,135.5C 375.833,136.167 376.167,136.833 376.5,137.5C 376.561,142.297 377.561,146.631 379.5,150.5C 379.746,162.197 379.413,173.864 378.5,185.5C 378.5,186.167 378.5,186.833 378.5,187.5C 376.621,188.895 375.621,190.895 375.5,193.5C 374.094,193.973 373.427,194.973 373.5,196.5C 371.28,198.718 368.613,200.052 365.5,200.5C 361.167,200.5 356.833,200.5 352.5,200.5C 350.668,199.752 349.001,198.752 347.5,197.5C 347.573,195.973 346.906,194.973 345.5,194.5C 343.364,190.424 342.03,186.09 341.5,181.5C 341.333,170.162 341.5,158.828 342,147.5C 343.27,141.489 345.77,136.156 349.5,131.5C 355.311,129.702 361.311,129.035 367.5,129.5 Z"/></g>
<g><path style="opacity:1" fill="#e76761" d="M 402.5,132.5 C 402.409,134.698 403.075,135.031 404.5,133.5C 406.395,132.297 408.395,131.131 410.5,130C 413.555,129.366 416.555,129.532 419.5,130.5C 420.5,131.167 421.5,131.833 422.5,132.5C 424.8,138.315 425.133,144.315 423.5,150.5C 420.609,151.403 417.609,151.736 414.5,151.5C 414.802,147.21 414.136,143.21 412.5,139.5C 412.5,138.833 412.167,138.5 411.5,138.5C 408.92,136.984 406.92,137.651 405.5,140.5C 404.503,160.326 404.17,180.326 404.5,200.5C 400.5,200.5 396.5,200.5 392.5,200.5C 392.5,176.833 392.5,153.167 392.5,129.5C 395.187,129.336 397.854,129.503 400.5,130C 401.066,130.995 401.733,131.828 402.5,132.5 Z"/></g>
<g><path style="opacity:1" fill="#ef9490" d="M 466.5,130.5 C 460.697,128.968 455.03,129.301 449.5,131.5C 449.577,130.25 450.244,129.417 451.5,129C 456.167,128.333 460.833,128.333 465.5,129C 466.056,129.383 466.389,129.883 466.5,130.5 Z"/></g>
<g><path style="opacity:1" fill="#e7645f" d="M 466.5,130.5 C 467.833,131.167 468.833,132.167 469.5,133.5C 470.457,155.807 470.791,178.14 470.5,200.5C 466.833,200.5 463.167,200.5 459.5,200.5C 459.667,180.497 459.5,160.497 459,140.5C 458.617,139.944 458.117,139.611 457.5,139.5C 456.688,138.007 455.355,137.34 453.5,137.5C 452.274,137.52 451.274,137.853 450.5,138.5C 448.629,138.859 447.129,139.859 446,141.5C 445.5,161.164 445.333,180.831 445.5,200.5C 441.833,200.5 438.167,200.5 434.5,200.5C 434.5,177.167 434.5,153.833 434.5,130.5C 437.167,130.5 439.833,130.5 442.5,130.5C 442.5,132.5 442.5,134.5 442.5,136.5C 443.833,136.5 445.167,136.5 446.5,136.5C 446.5,135.5 446.5,134.5 446.5,133.5C 448.027,133.573 449.027,132.906 449.5,131.5C 455.03,129.301 460.697,128.968 466.5,130.5 Z"/></g>
<g><path style="opacity:1" fill="#e76762" d="M 511.5,130.5 C 513.833,132.167 515.833,134.167 517.5,136.5C 517.5,139.833 517.5,143.167 517.5,146.5C 515.824,147.183 515.157,148.517 515.5,150.5C 513.167,150.5 510.833,150.5 508.5,150.5C 508.806,147.615 508.473,144.948 507.5,142.5C 507.068,141.29 506.401,140.29 505.5,139.5C 503.234,137.237 500.567,136.904 497.5,138.5C 496.702,138.957 496.369,139.624 496.5,140.5C 495.17,143.44 495.337,146.44 497,149.5C 503.402,156.735 509.235,164.402 514.5,172.5C 514.427,174.027 515.094,175.027 516.5,175.5C 517.833,181.5 517.833,187.5 516.5,193.5C 515.5,194.833 514.5,196.167 513.5,197.5C 510.895,197.621 508.895,198.621 507.5,200.5C 506.833,200.5 506.167,200.5 505.5,200.5C 501.167,200.5 496.833,200.5 492.5,200.5C 490.228,199.559 488.228,198.226 486.5,196.5C 486.443,195.391 486.11,194.391 485.5,193.5C 484.297,188.818 484.297,184.151 485.5,179.5C 488.086,178.52 490.753,178.187 493.5,178.5C 492.837,183.376 494.17,187.543 497.5,191C 500.538,191.885 503.205,191.385 505.5,189.5C 507.333,187.504 507.833,185.171 507,182.5C 501.763,176.033 496.596,169.699 491.5,163.5C 490.54,161.539 489.207,159.873 487.5,158.5C 487.167,157.833 486.833,157.167 486.5,156.5C 486.073,153.99 485.407,151.657 484.5,149.5C 482.966,136.877 488.466,130.211 501,129.5C 504.523,129.707 508.023,130.04 511.5,130.5 Z"/></g>
<g><path style="opacity:1" fill="#e76762" d="M 99.5,131.5 C 99.5,132.5 99.5,133.5 99.5,134.5C 99.8084,138.36 100.475,142.026 101.5,145.5C 101.335,148.518 101.502,151.518 102,154.5C 102.846,158.388 104.013,162.055 105.5,165.5C 105.5,166.167 105.5,166.833 105.5,167.5C 106.114,171.135 106.448,174.802 106.5,178.5C 106.5,179.833 106.5,181.167 106.5,182.5C 107.833,182.5 109.167,182.5 110.5,182.5C 110.5,179.167 110.5,175.833 110.5,172.5C 110.616,169.14 110.949,165.807 111.5,162.5C 111.5,161.167 111.5,159.833 111.5,158.5C 113.442,153.944 114.108,148.944 113.5,143.5C 114.434,142.432 114.768,141.099 114.5,139.5C 116.175,136.493 116.841,133.16 116.5,129.5C 120.167,129.5 123.833,129.5 127.5,129.5C 127.495,133.534 127.162,137.534 126.5,141.5C 125.117,146.415 124.117,151.415 123.5,156.5C 123.5,157.5 123.5,158.5 123.5,159.5C 121.755,163.2 120.755,167.2 120.5,171.5C 120.5,171.833 120.5,172.167 120.5,172.5C 119.883,172.611 119.383,172.944 119,173.5C 118.505,175.473 118.338,177.473 118.5,179.5C 118.007,181.806 117.674,184.139 117.5,186.5C 117.5,186.833 117.5,187.167 117.5,187.5C 115.692,188.918 115.025,190.918 115.5,193.5C 115.167,196.167 114.833,198.833 114.5,201.5C 114.5,201.833 114.5,202.167 114.5,202.5C 112.883,205.189 111.883,208.189 111.5,211.5C 111.5,212.167 111.5,212.833 111.5,213.5C 109.75,214.659 108.75,216.326 108.5,218.5C 107.021,219.759 105.354,220.759 103.5,221.5C 98.8969,222.383 94.2303,222.717 89.5,222.5C 89.5,220.167 89.5,217.833 89.5,215.5C 91.099,215.768 92.4324,215.434 93.5,214.5C 96.493,213.185 98.8263,211.185 100.5,208.5C 103.167,204.167 103.167,199.833 100.5,195.5C 99.64,189.061 98.3066,182.727 96.5,176.5C 96.2505,173.998 95.9172,171.498 95.5,169C 95.3917,167.319 94.7251,166.152 93.5,165.5C 93.3259,163.139 92.9926,160.806 92.5,158.5C 92.7406,156.102 92.0739,154.102 90.5,152.5C 90.7678,150.901 90.4345,149.568 89.5,148.5C 89.5905,145.848 88.9238,143.515 87.5,141.5C 87.5,140.167 87.5,138.833 87.5,137.5C 87.1667,134.833 86.8333,132.167 86.5,129.5C 91.1398,128.975 95.4731,129.642 99.5,131.5 Z"/></g>
<g><path style="opacity:1" fill="#f2b0ad" d="M 402.5,132.5 C 401.733,131.828 401.066,130.995 400.5,130C 397.854,129.503 395.187,129.336 392.5,129.5C 392.5,153.167 392.5,176.833 392.5,200.5C 391.502,176.672 391.169,152.672 391.5,128.5C 395.167,128.5 398.833,128.5 402.5,128.5C 402.5,129.833 402.5,131.167 402.5,132.5 Z"/></g>
<g><path style="opacity:1" fill="#ef9f9c" d="M 446.5,133.5 C 446.5,134.5 446.5,135.5 446.5,136.5C 445.167,136.5 443.833,136.5 442.5,136.5C 442.5,134.5 442.5,132.5 442.5,130.5C 439.713,129.523 436.713,129.19 433.5,129.5C 433.169,153.339 433.502,177.006 434.5,200.5C 438.167,200.5 441.833,200.5 445.5,200.5C 441.366,201.485 437.032,201.818 432.5,201.5C 432.5,177.167 432.5,152.833 432.5,128.5C 436.167,128.5 439.833,128.5 443.5,128.5C 443.687,130.564 444.187,132.564 445,134.5C 445.383,133.944 445.883,133.611 446.5,133.5 Z"/></g>
<g><path style="opacity:1" fill="#ea7773" d="M 442.5,130.5 C 439.833,130.5 437.167,130.5 434.5,130.5C 434.5,153.833 434.5,177.167 434.5,200.5C 433.502,177.006 433.169,153.339 433.5,129.5C 436.713,129.19 439.713,129.523 442.5,130.5 Z"/></g>
<g><path style="opacity:1" fill="#f09e9a" d="M 243.5,131.5 C 243.027,132.906 242.027,133.573 240.5,133.5C 240.973,132.094 241.973,131.427 243.5,131.5 Z"/></g>
<g><path style="opacity:1" fill="#f3adaa" d="M 372.5,132.5 C 374.5,132.5 375.5,133.5 375.5,135.5C 374.167,134.833 373.167,133.833 372.5,132.5 Z"/></g>
<g><path style="opacity:1" fill="#ef9793" d="M 449.5,131.5 C 449.027,132.906 448.027,133.573 446.5,133.5C 446.973,132.094 447.973,131.427 449.5,131.5 Z"/></g>
<g><path style="opacity:1" fill="#ed8782" d="M 879.5,127.5 C 881.984,129.8 883.984,132.467 885.5,135.5C 882.529,133.557 880.529,130.891 879.5,127.5 Z"/></g>
<g><path style="opacity:1" fill="#ee918d" d="M 511.5,130.5 C 508.023,130.04 504.523,129.707 501,129.5C 488.466,130.211 482.966,136.877 484.5,149.5C 481.564,135.754 487.231,128.754 501.5,128.5C 504.167,128.667 506.833,128.833 509.5,129C 510.416,129.278 511.082,129.778 511.5,130.5 Z"/></g>
<g><path style="opacity:1" fill="#f1a5a2" d="M 618.5,131.5 C 618.155,134.198 616.822,136.198 614.5,137.5C 615.34,135.147 616.674,133.147 618.5,131.5 Z"/></g>
<g><path style="opacity:1" fill="#ef9d9a" d="M 268.5,134.5 C 269.906,134.973 270.573,135.973 270.5,137.5C 269.094,137.027 268.427,136.027 268.5,134.5 Z"/></g>
<g><path style="opacity:1" fill="#f6c1bf" d="M 75.5,135.5 C 77.1765,136.183 77.8432,137.517 77.5,139.5C 77.1667,139.5 76.8333,139.5 76.5,139.5C 76.1667,138.167 75.8333,136.833 75.5,135.5 Z"/></g>
<g><path style="opacity:1" fill="#f1a3a0" d="M 579.5,133.5 C 578.974,135.23 577.974,136.564 576.5,137.5C 576.554,135.368 577.554,134.035 579.5,133.5 Z"/></g>
<g><path style="opacity:1" fill="#f7cac8" d="M 99.5,134.5 C 101.414,137.684 102.08,141.351 101.5,145.5C 100.475,142.026 99.8084,138.36 99.5,134.5 Z"/></g>
<g><path style="opacity:1" fill="#f5bebc" d="M 364.5,139.5 C 361.833,138.167 359.167,138.167 356.5,139.5C 357.312,138.007 358.645,137.34 360.5,137.5C 362.355,137.34 363.688,138.007 364.5,139.5 Z"/></g>
<g><path style="opacity:1" fill="#f5bebc" d="M 450.5,138.5 C 451.274,137.853 452.274,137.52 453.5,137.5C 455.355,137.34 456.688,138.007 457.5,139.5C 455.236,138.781 452.903,138.448 450.5,138.5 Z"/></g>
<g><path style="opacity:1" fill="#f7c9c7" d="M 505.5,139.5 C 502.373,138.312 499.373,138.645 496.5,140.5C 496.369,139.624 496.702,138.957 497.5,138.5C 500.567,136.904 503.234,137.237 505.5,139.5 Z"/></g>
<g><path style="opacity:1" fill="#f4b8b6" d="M 61.5,138.5 C 59.0971,138.448 56.7638,138.781 54.5,139.5C 55.3121,138.007 56.6455,137.34 58.5,137.5C 59.7261,137.52 60.7261,137.853 61.5,138.5 Z"/></g>
<g><path style="opacity:1" fill="#fef9f8" d="M 61.5,138.5 C 62.072,139.973 62.9054,141.307 64,142.5C 64.4999,156.829 64.6666,171.163 64.5,185.5C 63.962,187.117 63.6287,188.784 63.5,190.5C 60.796,191.714 58.1293,191.714 55.5,190.5C 54.6851,189.571 53.8518,188.571 53,187.5C 52.8333,179.667 52.6667,171.833 52.5,164C 52.5312,155.601 53.1979,147.434 54.5,139.5C 56.7638,138.781 59.0971,138.448 61.5,138.5 Z"/></g>
<g><path style="opacity:1" fill="#f2a7a4" d="M 208.5,140.5 C 205.966,138.408 203.299,138.074 200.5,139.5C 199.833,139.5 199.167,139.5 198.5,139.5C 198.611,138.883 198.944,138.383 199.5,138C 202.167,137.333 204.833,137.333 207.5,138C 208.252,138.671 208.586,139.504 208.5,140.5 Z"/></g>
<g><path style="opacity:1" fill="#f3b2af" d="M 256.5,138.5 C 254.097,138.448 251.764,138.781 249.5,139.5C 250.312,138.007 251.645,137.34 253.5,137.5C 254.726,137.52 255.726,137.853 256.5,138.5 Z"/></g>
<g><path style="opacity:1" fill="#fefbfb" d="M 256.5,138.5 C 257.072,139.973 257.905,141.307 259,142.5C 259.499,147.489 259.666,152.489 259.5,157.5C 255.833,157.5 252.167,157.5 248.5,157.5C 247.549,156.081 247.216,154.415 247.5,152.5C 248.225,148.605 248.891,144.605 249.5,140.5C 249.5,140.167 249.5,139.833 249.5,139.5C 251.764,138.781 254.097,138.448 256.5,138.5 Z"/></g>
<g><path style="opacity:1" fill="#fefdfd" d="M 364.5,139.5 C 365.803,155.852 365.803,172.186 364.5,188.5C 361.763,192.388 359.096,192.388 356.5,188.5C 355.182,172.173 355.182,155.84 356.5,139.5C 359.167,138.167 361.833,138.167 364.5,139.5 Z"/></g>
<g><path style="opacity:1" fill="#f1a5a2" d="M 220.5,135.5 C 222.223,137.78 222.889,140.447 222.5,143.5C 221.232,141.095 220.565,138.428 220.5,135.5 Z"/></g>
<g><path style="opacity:1" fill="#f8d3d2" d="M 238.5,136.5 C 237.637,138.421 236.971,140.421 236.5,142.5C 236.167,142.5 235.833,142.5 235.5,142.5C 235.386,139.784 236.386,137.784 238.5,136.5 Z"/></g>
<g><path style="opacity:1" fill="#e9736e" d="M 469.5,133.5 C 470.931,134.78 471.598,136.447 471.5,138.5C 471.831,159.34 471.497,180.007 470.5,200.5C 470.791,178.14 470.457,155.807 469.5,133.5 Z"/></g>
<g><path style="opacity:1" fill="#fbe7e6" d="M 411.5,138.5 C 409.61,138.297 408.11,138.963 407,140.5C 406.832,160.671 406.332,180.671 405.5,200.5C 405.5,180.5 405.5,160.5 405.5,140.5C 406.92,137.651 408.92,136.984 411.5,138.5 Z"/></g>
<g><path style="opacity:1" fill="#ed8a85" d="M 576.5,137.5 C 576.408,139.848 575.408,141.514 573.5,142.5C 573.75,140.326 574.75,138.659 576.5,137.5 Z"/></g>
<g><path style="opacity:1" fill="#efa09e" d="M 405.5,140.5 C 405.5,160.5 405.5,180.5 405.5,200.5C 401.167,201.833 396.833,201.833 392.5,200.5C 396.5,200.5 400.5,200.5 404.5,200.5C 404.17,180.326 404.503,160.326 405.5,140.5 Z"/></g>
<g><path style="opacity:1" fill="#f6c5c3" d="M 471.5,138.5 C 472.222,138.918 472.722,139.584 473,140.5C 473.5,160.831 473.667,181.164 473.5,201.5C 468.637,201.819 463.97,201.486 459.5,200.5C 463.167,200.5 466.833,200.5 470.5,200.5C 471.497,180.007 471.831,159.34 471.5,138.5 Z"/></g>
<g><path style="opacity:1" fill="#f2a6a3" d="M 614.5,137.5 C 613.575,140.41 612.241,143.076 610.5,145.5C 610.53,142.148 611.863,139.482 614.5,137.5 Z"/></g>
<g><path style="opacity:1" fill="#f9dedd" d="M 198.5,139.5 C 199.167,139.5 199.833,139.5 200.5,139.5C 200.189,140.478 199.522,141.145 198.5,141.5C 198.16,161.85 197.16,181.85 195.5,201.5C 195.5,201.167 195.5,200.833 195.5,200.5C 195.333,181.164 195.5,161.83 196,142.5C 196.698,141.309 197.531,140.309 198.5,139.5 Z"/></g>
<g><path style="opacity:1" fill="#f2b1ae" d="M 450.5,138.5 C 449.542,139.962 448.376,141.295 447,142.5C 446.832,162.004 446.332,181.338 445.5,200.5C 445.333,180.831 445.5,161.164 446,141.5C 447.129,139.859 448.629,138.859 450.5,138.5 Z"/></g>
<g><path style="opacity:1" fill="#f5bfbd" d="M 505.5,139.5 C 506.401,140.29 507.068,141.29 507.5,142.5C 507.5,143.5 507.5,144.5 507.5,145.5C 505.926,143.898 505.259,141.898 505.5,139.5 Z"/></g>
<g><path style="opacity:1" fill="#ee8c87" d="M 889.5,141.5 C 892.295,144.655 894.295,148.322 895.5,152.5C 894.542,152.047 893.708,151.381 893,150.5C 891.346,147.707 890.179,144.707 889.5,141.5 Z"/></g>
<g><path style="opacity:1" fill="#f6c5c3" d="M 61.5,138.5 C 64.7418,140.03 66.2418,142.696 66,146.5C 66.6667,158.5 66.6667,170.5 66,182.5C 65.7679,183.737 65.2679,184.737 64.5,185.5C 64.6666,171.163 64.4999,156.829 64,142.5C 62.9054,141.307 62.072,139.973 61.5,138.5 Z"/></g>
<g><path style="opacity:1" fill="#f7cdcb" d="M 87.5,141.5 C 88.9238,143.515 89.5905,145.848 89.5,148.5C 88.0762,146.485 87.4095,144.152 87.5,141.5 Z"/></g>
<g><path style="opacity:1" fill="#f3b4b1" d="M 249.5,140.5 C 248.891,144.605 248.225,148.605 247.5,152.5C 246.911,148.029 247.577,144.029 249.5,140.5 Z"/></g>
<g><path style="opacity:1" fill="#f7c6c4" d="M 256.5,138.5 C 258.74,139.587 260.073,141.42 260.5,144C 261.72,148.988 261.72,153.822 260.5,158.5C 256.298,158.817 252.298,158.483 248.5,157.5C 252.167,157.5 255.833,157.5 259.5,157.5C 259.666,152.489 259.499,147.489 259,142.5C 257.905,141.307 257.072,139.973 256.5,138.5 Z"/></g>
<g><path style="opacity:1" fill="#f0a09c" d="M 235.5,142.5 C 235.833,142.5 236.167,142.5 236.5,142.5C 236.59,145.152 235.924,147.485 234.5,149.5C 234.674,147.139 235.007,144.806 235.5,142.5 Z"/></g>
<g><path style="opacity:1" fill="#fae1e0" d="M 364.5,139.5 C 366.265,142.123 366.932,145.123 366.5,148.5C 366.5,159.5 366.5,170.5 366.5,181.5C 366.702,183.95 366.369,186.283 365.5,188.5C 365.167,188.5 364.833,188.5 364.5,188.5C 365.803,172.186 365.803,155.852 364.5,139.5 Z"/></g>
<g><path style="opacity:1" fill="#ec837f" d="M 366.5,148.5 C 367.829,153.624 368.495,159.124 368.5,165C 368.495,170.876 367.829,176.376 366.5,181.5C 366.5,170.5 366.5,159.5 366.5,148.5 Z"/></g>
<g><path style="opacity:1" fill="#fadedc" d="M 356.5,139.5 C 355.182,155.84 355.182,172.173 356.5,188.5C 355.883,188.389 355.383,188.056 355,187.5C 354.817,184.635 354.317,181.969 353.5,179.5C 353.333,168.495 353.5,157.495 354,146.5C 354.315,144.414 354.815,142.414 355.5,140.5C 355.5,139.833 355.833,139.5 356.5,139.5 Z"/></g>
<g><path style="opacity:1" fill="#eb7d78" d="M 376.5,137.5 C 378.41,140.452 379.41,143.786 379.5,147.5C 379.5,148.5 379.5,149.5 379.5,150.5C 377.561,146.631 376.561,142.297 376.5,137.5 Z"/></g>
<g><path style="opacity:1" fill="#f5c2bf" d="M 517.5,136.5 C 518.804,141.37 518.804,146.37 517.5,151.5C 514.02,152.806 510.687,152.806 507.5,151.5C 510.5,151.5 513.5,151.5 516.5,151.5C 516.629,149.784 516.962,148.117 517.5,146.5C 517.5,143.167 517.5,139.833 517.5,136.5 Z"/></g>
<g><path style="opacity:1" fill="#ec8783" d="M 355.5,140.5 C 354.815,142.414 354.315,144.414 354,146.5C 353.5,157.495 353.333,168.495 353.5,179.5C 352.341,168.341 352.174,157.008 353,145.5C 353.05,143.256 353.883,141.589 355.5,140.5 Z"/></g>
<g><path style="opacity:1" fill="#eb7f7a" d="M 507.5,142.5 C 508.473,144.948 508.806,147.615 508.5,150.5C 510.833,150.5 513.167,150.5 515.5,150.5C 515.157,148.517 515.824,147.183 517.5,146.5C 516.962,148.117 516.629,149.784 516.5,151.5C 513.5,151.5 510.5,151.5 507.5,151.5C 507.5,149.5 507.5,147.5 507.5,145.5C 507.5,144.5 507.5,143.5 507.5,142.5 Z"/></g>
<g><path style="opacity:1" fill="#f7c2bf" d="M 850.5,140.5 C 853.426,143.476 855.092,147.142 855.5,151.5C 854.044,149.291 852.544,146.957 851,144.5C 850.51,143.207 850.343,141.873 850.5,140.5 Z"/></g>
<g><path style="opacity:1" fill="#f09e9a" d="M 349.5,131.5 C 345.77,136.156 343.27,141.489 342,147.5C 341.5,158.828 341.333,170.162 341.5,181.5C 340.34,169.34 340.173,157.007 341,144.5C 342.266,141.534 343.433,138.534 344.5,135.5C 345.605,133.389 347.271,132.055 349.5,131.5 Z"/></g>
<g><path style="opacity:1" fill="#f5bdba" d="M 412.5,139.5 C 414.136,143.21 414.802,147.21 414.5,151.5C 417.609,151.736 420.609,151.403 423.5,150.5C 422.306,151.777 420.64,152.444 418.5,152.5C 416.833,152.333 415.167,152.167 413.5,152C 412.536,147.934 412.203,143.767 412.5,139.5 Z"/></g>
<g><path style="opacity:1" fill="#f4b6b3" d="M 570.5,146.5 C 570.245,148.967 569.245,150.967 567.5,152.5C 567.755,150.033 568.755,148.033 570.5,146.5 Z"/></g>
<g><path style="opacity:1" fill="#ec827d" d="M 76.5,139.5 C 76.8333,139.5 77.1667,139.5 77.5,139.5C 79.7389,155.102 80.0722,170.768 78.5,186.5C 78.1667,186.5 77.8333,186.5 77.5,186.5C 77.7706,170.805 77.4373,155.138 76.5,139.5 Z"/></g>
<g><path style="opacity:1" fill="#f9dbda" d="M 77.5,139.5 C 78.1174,139.611 78.6174,139.944 79,140.5C 80.5544,154.459 80.8877,168.459 80,182.5C 79.8019,184.382 79.3019,186.048 78.5,187.5C 78.5,187.167 78.5,186.833 78.5,186.5C 80.0722,170.768 79.7389,155.102 77.5,139.5 Z"/></g>
<g><path style="opacity:1" fill="#f9d4d3" d="M 128.5,138.5 C 127.029,144.087 125.862,149.753 125,155.5C 124.617,156.056 124.117,156.389 123.5,156.5C 124.117,151.415 125.117,146.415 126.5,141.5C 127.167,140.5 127.833,139.5 128.5,138.5 Z"/></g>
<g><path style="opacity:1" fill="#f6c2bf" d="M 484.5,149.5 C 485.407,151.657 486.073,153.99 486.5,156.5C 485.883,156.389 485.383,156.056 485,155.5C 484.505,153.527 484.338,151.527 484.5,149.5 Z"/></g>
<g><path style="opacity:1" fill="#f4bab7" d="M 608.5,150.5 C 608.741,152.898 608.074,154.898 606.5,156.5C 606.259,154.102 606.926,152.102 608.5,150.5 Z"/></g>
<g><path style="opacity:1" fill="#f2aca8" d="M 90.5,152.5 C 92.0739,154.102 92.7406,156.102 92.5,158.5C 92.1667,158.5 91.8333,158.5 91.5,158.5C 90.8505,156.565 90.5172,154.565 90.5,152.5 Z"/></g>
<g><path style="opacity:1" fill="#f1a7a3" d="M 113.5,143.5 C 114.108,148.944 113.442,153.944 111.5,158.5C 111.934,153.332 112.6,148.332 113.5,143.5 Z"/></g>
<g><path style="opacity:1" fill="#ed8e8a" d="M 247.5,152.5 C 247.216,154.415 247.549,156.081 248.5,157.5C 252.298,158.483 256.298,158.817 260.5,158.5C 256.03,159.486 251.363,159.819 246.5,159.5C 246.198,156.941 246.532,154.607 247.5,152.5 Z"/></g>
<g><path style="opacity:1" fill="#f19e9a" d="M 567.5,153.5 C 566.993,156.431 565.993,159.098 564.5,161.5C 564.307,158.189 565.307,155.522 567.5,153.5 Z"/></g>
<g><path style="opacity:1" fill="#f2aba8" d="M 314.5,200.5 C 313.504,187.344 313.171,174.01 313.5,160.5C 308.695,159.513 303.695,159.179 298.5,159.5C 298.829,173.344 298.496,187.01 297.5,200.5C 297.5,186.5 297.5,172.5 297.5,158.5C 303.167,158.5 308.833,158.5 314.5,158.5C 314.5,172.5 314.5,186.5 314.5,200.5 Z"/></g>
<g><path style="opacity:1" fill="#f8d5d4" d="M 313.5,160.5 C 308.833,160.5 304.167,160.5 299.5,160.5C 300.149,174.541 299.482,188.208 297.5,201.5C 297.5,201.167 297.5,200.833 297.5,200.5C 298.496,187.01 298.829,173.344 298.5,159.5C 303.695,159.179 308.695,159.513 313.5,160.5 Z"/></g>
<g><path style="opacity:1" fill="#f7d0cf" d="M 91.5,158.5 C 91.8333,158.5 92.1667,158.5 92.5,158.5C 92.9926,160.806 93.3259,163.139 93.5,165.5C 92.0762,163.485 91.4095,161.152 91.5,158.5 Z"/></g>
<g><path style="opacity:1" fill="#f9d2d0" d="M 487.5,158.5 C 489.207,159.873 490.54,161.539 491.5,163.5C 489.003,162.871 487.67,161.204 487.5,158.5 Z"/></g>
<g><path style="opacity:1" fill="#ee928d" d="M 101.5,145.5 C 103.401,151.921 104.735,158.587 105.5,165.5C 104.013,162.055 102.846,158.388 102,154.5C 101.502,151.518 101.335,148.518 101.5,145.5 Z"/></g>
<g><path style="opacity:1" fill="#f4b6b3" d="M 897.5,156.5 C 899.357,158.282 900.357,160.615 900.5,163.5C 898.759,161.605 897.759,159.272 897.5,156.5 Z"/></g>
<g><path style="opacity:1" fill="#f1a19d" d="M 271.5,139.5 C 272.984,143.054 273.651,146.888 273.5,151C 273.288,156.194 272.788,161.361 272,166.5C 264.253,167.482 256.42,167.815 248.5,167.5C 248.5,173.5 248.5,179.5 248.5,185.5C 247.579,181.015 246.912,176.349 246.5,171.5C 246.551,169.9 246.884,168.4 247.5,167C 255.412,166.817 263.246,166.317 271,165.5C 271.5,156.84 271.666,148.173 271.5,139.5 Z"/></g>
<g><path style="opacity:1" fill="#ef9794" d="M 563.5,164.5 C 563.59,167.152 562.924,169.485 561.5,171.5C 561.41,168.848 562.076,166.515 563.5,164.5 Z"/></g>
<g><path style="opacity:1" fill="#f1a4a1" d="M 606.5,157.5 C 605.6,162.772 605.267,168.105 605.5,173.5C 604.35,168.684 604.184,163.684 605,158.5C 605.383,157.944 605.883,157.611 606.5,157.5 Z"/></g>
<g><path style="opacity:1" fill="#f3b3b0" d="M 111.5,162.5 C 110.949,165.807 110.616,169.14 110.5,172.5C 110.167,172.5 109.833,172.5 109.5,172.5C 109.159,168.84 109.825,165.507 111.5,162.5 Z"/></g>
<g><path style="opacity:1" fill="#f9d3d2" d="M 856.5,156.5 C 857.222,156.918 857.722,157.584 858,158.5C 858.667,164.5 858.667,170.5 858,176.5C 857.722,177.416 857.222,178.082 856.5,178.5C 857.783,171.162 857.783,163.828 856.5,156.5 Z"/></g>
<g><path style="opacity:1" fill="#f6c7c5" d="M 123.5,159.5 C 123.048,163.163 122.548,166.83 122,170.5C 121.617,171.056 121.117,171.389 120.5,171.5C 120.755,167.2 121.755,163.2 123.5,159.5 Z"/></g>
<g><path style="opacity:1" fill="#f3b5b2" d="M 379.5,147.5 C 380.66,159.66 380.827,171.993 380,184.5C 379.617,185.056 379.117,185.389 378.5,185.5C 379.413,173.864 379.746,162.197 379.5,150.5C 379.5,149.5 379.5,148.5 379.5,147.5 Z"/></g>
<g><path style="opacity:1" fill="#f3b0ad" d="M 93.5,165.5 C 94.7251,166.152 95.3917,167.319 95.5,169C 95.9172,171.498 96.2505,173.998 96.5,176.5C 94.7424,173.146 93.7424,169.479 93.5,165.5 Z"/></g>
<g><path style="opacity:1" fill="#ef9996" d="M 514.5,172.5 C 515.906,172.973 516.573,173.973 516.5,175.5C 515.094,175.027 514.427,174.027 514.5,172.5 Z"/></g>
<g><path style="opacity:1" fill="#ec8581" d="M 902.5,172.5 C 903.493,181.318 903.827,190.318 903.5,199.5C 902.833,200.833 902.167,202.167 901.5,203.5C 902.339,193.19 902.672,182.857 902.5,172.5 Z"/></g>
<g><path style="opacity:1" fill="#fbe6e5" d="M 902.5,170.5 C 903.827,174.951 904.494,179.784 904.5,185C 904.499,190.012 904.166,194.845 903.5,199.5C 903.827,190.318 903.493,181.318 902.5,172.5C 902.5,171.833 902.5,171.167 902.5,170.5 Z"/></g>
<g><path style="opacity:1" fill="#f5bfbc" d="M 105.5,167.5 C 106.833,170.167 108.167,172.833 109.5,175.5C 109.5,176.5 109.5,177.5 109.5,178.5C 108.5,178.5 107.5,178.5 106.5,178.5C 106.448,174.802 106.114,171.135 105.5,167.5 Z"/></g>
<g><path style="opacity:1" fill="#ef9a96" d="M 120.5,172.5 C 120.326,174.861 119.993,177.194 119.5,179.5C 119.167,179.5 118.833,179.5 118.5,179.5C 118.338,177.473 118.505,175.473 119,173.5C 119.383,172.944 119.883,172.611 120.5,172.5 Z"/></g>
<g><path style="opacity:1" fill="#fbeaea" d="M 272.5,184.5 C 272.5,182.833 272.5,181.167 272.5,179.5C 268.833,179.5 265.167,179.5 261.5,179.5C 262.871,178.213 264.705,177.547 267,177.5C 273.161,176.675 274.995,179.008 272.5,184.5 Z"/></g>
<g><path style="opacity:1" fill="#f0a19e" d="M 261.5,180.5 C 261.5,180.167 261.5,179.833 261.5,179.5C 265.167,179.5 268.833,179.5 272.5,179.5C 272.5,181.167 272.5,182.833 272.5,184.5C 272.5,185.5 272.5,186.5 272.5,187.5C 272.167,187.5 271.833,187.5 271.5,187.5C 271.5,185.167 271.5,182.833 271.5,180.5C 268.167,180.5 264.833,180.5 261.5,180.5 Z"/></g>
<g><path style="opacity:1" fill="#ec837f" d="M 109.5,172.5 C 109.833,172.5 110.167,172.5 110.5,172.5C 110.5,175.833 110.5,179.167 110.5,182.5C 109.167,182.5 107.833,182.5 106.5,182.5C 106.5,181.167 106.5,179.833 106.5,178.5C 107.5,178.5 108.5,178.5 109.5,178.5C 109.5,177.5 109.5,176.5 109.5,175.5C 109.5,174.5 109.5,173.5 109.5,172.5 Z"/></g>
<g><path style="opacity:1" fill="#f1a39f" d="M 607.5,180.5 C 608.833,181.167 609.833,182.167 610.5,183.5C 608.5,183.5 607.5,182.5 607.5,180.5 Z"/></g>
<g><path style="opacity:1" fill="#f2a8a4" d="M 516.5,175.5 C 517.117,175.611 517.617,175.944 518,176.5C 520,181.833 520,187.167 518,192.5C 517.617,193.056 517.117,193.389 516.5,193.5C 517.833,187.5 517.833,181.5 516.5,175.5 Z"/></g>
<g><path style="opacity:1" fill="#ef928d" d="M 493.5,178.5 C 490.753,178.187 488.086,178.52 485.5,179.5C 484.297,184.151 484.297,188.818 485.5,193.5C 484.883,193.389 484.383,193.056 484,192.5C 483.501,187.845 483.334,183.179 483.5,178.5C 486.936,177.218 490.269,177.218 493.5,178.5 Z"/></g>
<g><path style="opacity:1" fill="#f3b1af" d="M 560.5,173.5 C 560.5,180.833 560.5,188.167 560.5,195.5C 561.15,197.435 561.483,199.435 561.5,201.5C 560.883,201.389 560.383,201.056 560,200.5C 559.176,191.324 559.343,182.324 560.5,173.5 Z"/></g>
<g><path style="opacity:1" fill="#f7d0cf" d="M 118.5,179.5 C 118.833,179.5 119.167,179.5 119.5,179.5C 119.662,181.527 119.495,183.527 119,185.5C 118.617,186.056 118.117,186.389 117.5,186.5C 117.674,184.139 118.007,181.806 118.5,179.5 Z"/></g>
<g><path style="opacity:1" fill="#f9d4d2" d="M 261.5,179.5 C 261.5,179.833 261.5,180.167 261.5,180.5C 261.649,183.607 261.149,186.607 260,189.5C 254.197,193.138 250.363,191.805 248.5,185.5C 250.026,186.105 251.026,187.271 251.5,189C 253.833,189.667 256.167,189.667 258.5,189C 259.767,185.812 260.767,182.645 261.5,179.5 Z"/></g>
<g><path style="opacity:1" fill="#ec827d" d="M 353.5,179.5 C 354.317,181.969 354.817,184.635 355,187.5C 355.383,188.056 355.883,188.389 356.5,188.5C 359.096,192.388 361.763,192.388 364.5,188.5C 364.833,188.5 365.167,188.5 365.5,188.5C 365.489,190.017 364.823,191.184 363.5,192C 359.934,192.957 356.934,192.124 354.5,189.5C 353.513,186.232 353.18,182.898 353.5,179.5 Z"/></g>
<g><path style="opacity:1" fill="#f7c4c1" d="M 613.5,185.5 C 614.873,185.343 616.207,185.51 617.5,186C 619.724,187.781 622.058,189.281 624.5,190.5C 620.153,190.111 616.486,188.444 613.5,185.5 Z"/></g>
<g><path style="opacity:1" fill="#f1a39f" d="M 77.5,186.5 C 77.8333,186.5 78.1667,186.5 78.5,186.5C 78.5,186.833 78.5,187.167 78.5,187.5C 77.9759,189.306 77.3092,190.972 76.5,192.5C 76.2053,190.265 76.5386,188.265 77.5,186.5 Z"/></g>
<g><path style="opacity:1" fill="#f9d3d1" d="M 493.5,178.5 C 494.051,182.179 495.385,185.679 497.5,189C 500.146,189.497 502.813,189.664 505.5,189.5C 503.205,191.385 500.538,191.885 497.5,191C 494.17,187.543 492.837,183.376 493.5,178.5 Z"/></g>
<g><path style="opacity:1" fill="#ed8681" d="M 852.5,184.5 C 849.446,188.197 845.446,190.197 840.5,190.5C 844.579,188.694 848.579,186.694 852.5,184.5 Z"/></g>
<g><path style="opacity:1" fill="#ed8f8a" d="M 117.5,187.5 C 116.85,189.435 116.517,191.435 116.5,193.5C 116.167,193.5 115.833,193.5 115.5,193.5C 115.025,190.918 115.692,188.918 117.5,187.5 Z"/></g>
<g><path style="opacity:1" fill="#f8d0ce" d="M 271.5,187.5 C 271.833,187.5 272.167,187.5 272.5,187.5C 272.741,189.898 272.074,191.898 270.5,193.5C 270.517,191.435 270.85,189.435 271.5,187.5 Z"/></g>
<g><path style="opacity:1" fill="#ec8782" d="M 55.5,190.5 C 58.1293,191.714 60.796,191.714 63.5,190.5C 62.5081,192.026 61.0081,192.693 59,192.5C 57.3189,192.392 56.1522,191.725 55.5,190.5 Z"/></g>
<g><path style="opacity:1" fill="#fadedd" d="M 483.5,178.5 C 483.334,183.179 483.501,187.845 484,192.5C 484.383,193.056 484.883,193.389 485.5,193.5C 486.11,194.391 486.443,195.391 486.5,196.5C 485.206,195.71 484.039,194.71 483,193.5C 482.184,188.316 482.35,183.316 483.5,178.5 Z"/></g>
<g><path style="opacity:1" fill="#f5bab8" d="M 624.5,190.5 C 628.417,190.976 632.084,191.976 635.5,193.5C 632.161,193.11 628.827,192.61 625.5,192C 624.944,191.617 624.611,191.117 624.5,190.5 Z"/></g>
<g><path style="opacity:1" fill="#f8ccca" d="M 378.5,187.5 C 378.379,190.105 377.379,192.105 375.5,193.5C 375.621,190.895 376.621,188.895 378.5,187.5 Z"/></g>
<g><path style="opacity:1" fill="#ed8e8a" d="M 838.5,191.5 C 836.095,192.768 833.428,193.435 830.5,193.5C 832.838,191.96 835.505,191.294 838.5,191.5 Z"/></g>
<g><path style="opacity:1" fill="#f5c1bf" d="M 237.5,192.5 C 239.262,193.262 240.262,194.596 240.5,196.5C 238.738,195.738 237.738,194.404 237.5,192.5 Z"/></g>
<g><path style="opacity:1" fill="#f4bab7" d="M 375.5,193.5 C 375.573,195.027 374.906,196.027 373.5,196.5C 373.427,194.973 374.094,193.973 375.5,193.5 Z"/></g>
<g><path style="opacity:1" fill="#f8d0ce" d="M 639.5,194.5 C 643.897,194.425 648.23,194.925 652.5,196C 653.056,196.383 653.389,196.883 653.5,197.5C 648.578,197.13 643.911,196.13 639.5,194.5 Z"/></g>
<g><path style="opacity:1" fill="#f6bfbb" d="M 269.5,193.5 C 269.771,195.38 269.104,196.713 267.5,197.5C 267.66,195.847 268.326,194.514 269.5,193.5 Z"/></g>
<g><path style="opacity:1" fill="#f6c2c0" d="M 345.5,194.5 C 346.906,194.973 347.573,195.973 347.5,197.5C 346.094,197.027 345.427,196.027 345.5,194.5 Z"/></g>
<g><path style="opacity:1" fill="#fadddc" d="M 820.5,194.5 C 819.833,195.167 819.167,195.833 818.5,196.5C 817.167,196.5 815.833,196.5 814.5,196.5C 812.435,196.517 810.435,196.85 808.5,197.5C 812.017,195.532 816.017,194.532 820.5,194.5 Z"/></g>
<g><path style="opacity:1" fill="#ee918d" d="M 820.5,194.5 C 821.833,194.5 823.167,194.5 824.5,194.5C 822.898,196.074 820.898,196.741 818.5,196.5C 819.167,195.833 819.833,195.167 820.5,194.5 Z"/></g>
<g><path style="opacity:1" fill="#eb7e7a" d="M 560.5,195.5 C 562.468,199.017 563.468,203.017 563.5,207.5C 562.262,205.786 561.595,203.786 561.5,201.5C 561.483,199.435 561.15,197.435 560.5,195.5 Z"/></g>
<g><path style="opacity:1" fill="#f0a19e" d="M 51.5,195.5 C 50.8333,197.167 50.1667,198.833 49.5,200.5C 49.2011,198.396 49.5344,196.396 50.5,194.5C 51.1067,194.624 51.44,194.957 51.5,195.5 Z"/></g>
<g><path style="opacity:1" fill="#f7c4c1" d="M 75.5,195.5 C 75.1436,197.19 74.1436,198.19 72.5,198.5C 72.8564,196.81 73.8564,195.81 75.5,195.5 Z"/></g>
<g><path style="opacity:1" fill="#ed8984" d="M 814.5,196.5 C 812.365,198.369 809.698,199.036 806.5,198.5C 806.5,198.167 806.5,197.833 806.5,197.5C 807.167,197.5 807.833,197.5 808.5,197.5C 810.435,196.85 812.435,196.517 814.5,196.5 Z"/></g>
<g><path style="opacity:1" fill="#ed8c87" d="M 513.5,197.5 C 511.887,199.088 509.887,200.088 507.5,200.5C 508.895,198.621 510.895,197.621 513.5,197.5 Z"/></g>
<g><path style="opacity:1" fill="#f8d3d1" d="M 653.5,197.5 C 659.84,197.849 666.173,198.349 672.5,199C 673.737,199.232 674.737,199.732 675.5,200.5C 672.833,200.167 670.167,199.833 667.5,199.5C 662.586,199.638 657.919,198.972 653.5,197.5 Z"/></g>
<g><path style="opacity:1" fill="#f9d6d4" d="M 802.5,197.5 C 801.5,198.167 800.5,198.833 799.5,199.5C 792.528,200.427 785.528,201.094 778.5,201.5C 786.115,199.155 794.115,197.822 802.5,197.5 Z"/></g>
<g><path style="opacity:1" fill="#f3b2af" d="M 802.5,197.5 C 803.833,197.5 805.167,197.5 806.5,197.5C 806.5,197.833 806.5,198.167 806.5,198.5C 804.194,198.993 801.861,199.326 799.5,199.5C 800.5,198.833 801.5,198.167 802.5,197.5 Z"/></g>
<g><path style="opacity:1" fill="#f9d6d5" d="M 115.5,193.5 C 115.833,193.5 116.167,193.5 116.5,193.5C 117.036,196.698 116.369,199.365 114.5,201.5C 114.833,198.833 115.167,196.167 115.5,193.5 Z"/></g>
<g><path style="opacity:1" fill="#f2aaa6" d="M 245.5,199.5 C 251.5,200.833 257.5,200.833 263.5,199.5C 263.389,200.117 263.056,200.617 262.5,201C 257.155,202.871 251.821,202.871 246.5,201C 245.944,200.617 245.611,200.117 245.5,199.5 Z"/></g>
<g><path style="opacity:1" fill="#f1a4a1" d="M 352.5,200.5 C 356.833,200.5 361.167,200.5 365.5,200.5C 361.214,202.989 356.881,202.989 352.5,200.5 Z"/></g>
<g><path style="opacity:1" fill="#ed8984" d="M 667.5,199.5 C 670.167,199.833 672.833,200.167 675.5,200.5C 675.5,200.833 675.5,201.167 675.5,201.5C 672.302,202.036 669.635,201.369 667.5,199.5 Z"/></g>
<g><path style="opacity:1" fill="#f5bebc" d="M 100.5,195.5 C 103.167,199.833 103.167,204.167 100.5,208.5C 100.5,204.167 100.5,199.833 100.5,195.5 Z"/></g>
<g><path style="opacity:1" fill="#f4b4b1" d="M 492.5,200.5 C 496.833,200.5 501.167,200.5 505.5,200.5C 501.196,203.09 496.863,203.09 492.5,200.5 Z"/></g>
<g><path style="opacity:1" fill="#f0a09c" d="M 675.5,201.5 C 675.5,201.167 675.5,200.833 675.5,200.5C 678.167,200.5 680.833,200.5 683.5,200.5C 685.5,201.167 687.5,201.833 689.5,202.5C 684.819,202.331 680.152,201.998 675.5,201.5 Z"/></g>
<g><path style="opacity:1" fill="#f7ccca" d="M 683.5,200.5 C 688.453,200.123 693.119,200.789 697.5,202.5C 694.833,202.5 692.167,202.5 689.5,202.5C 687.5,201.833 685.5,201.167 683.5,200.5 Z"/></g>
<g><path style="opacity:1" fill="#f9d3d1" d="M 776.5,201.5 C 771.025,202.489 765.358,202.822 759.5,202.5C 757.517,202.157 756.183,202.824 755.5,204.5C 754.596,203.791 754.263,202.791 754.5,201.5C 761.833,201.5 769.167,201.5 776.5,201.5 Z"/></g>
<g><path style="opacity:1" fill="#fbdfde" d="M 72.5,198.5 C 71.4336,200.606 69.7669,202.106 67.5,203C 66.1667,203.167 64.8333,203.333 63.5,203.5C 61.6672,203.415 60.3339,202.748 59.5,201.5C 64.2664,202.037 68.5998,201.037 72.5,198.5 Z"/></g>
<g><path style="opacity:1" fill="#eb7e79" d="M 689.5,202.5 C 692.167,202.5 694.833,202.5 697.5,202.5C 699.5,202.5 701.5,202.5 703.5,202.5C 703.918,203.222 704.584,203.722 705.5,204C 704.944,204.383 704.611,204.883 704.5,205.5C 702.435,205.517 700.435,205.85 698.5,206.5C 698.804,205.85 699.137,205.183 699.5,204.5C 696.023,203.833 692.689,203.166 689.5,202.5 Z"/></g>
<g><path style="opacity:1" fill="#f2b0ac" d="M 703.5,202.5 C 709.757,202.122 710.091,203.122 704.5,205.5C 704.611,204.883 704.944,204.383 705.5,204C 704.584,203.722 703.918,203.222 703.5,202.5 Z"/></g>
<g><path style="opacity:1" fill="#f2aeab" d="M 759.5,202.5 C 758.167,203.5 758.167,204.5 759.5,205.5C 757.901,205.768 756.568,205.434 755.5,204.5C 756.183,202.824 757.517,202.157 759.5,202.5 Z"/></g>
<g><path style="opacity:1" fill="#f2acaa" d="M 114.5,202.5 C 114.554,205.992 113.554,208.992 111.5,211.5C 111.883,208.189 112.883,205.189 114.5,202.5 Z"/></g>
<g><path style="opacity:1" fill="#ef9995" d="M 765.5,206.5 C 767.027,206.427 768.027,207.094 768.5,208.5C 766.973,208.573 765.973,207.906 765.5,206.5 Z"/></g>
<g><path style="opacity:1" fill="#f2adaa" d="M 698.5,206.5 C 696.853,208.326 694.853,209.66 692.5,210.5C 693.802,208.178 695.802,206.845 698.5,206.5 Z"/></g>
<g><path style="opacity:1" fill="#f2a4a1" d="M 768.5,208.5 C 770.674,208.75 772.341,209.75 773.5,211.5C 771.152,211.408 769.486,210.408 768.5,208.5 Z"/></g>
<g><path style="opacity:1" fill="#f7c6c4" d="M 900.5,208.5 C 900.969,211.393 899.969,213.393 897.5,214.5C 897.992,212.181 898.992,210.181 900.5,208.5 Z"/></g>
<g><path style="opacity:1" fill="#f4b9b6" d="M 111.5,213.5 C 111.25,215.674 110.25,217.341 108.5,218.5C 108.75,216.326 109.75,214.659 111.5,213.5 Z"/></g>
<g><path style="opacity:1" fill="#f4b9b6" d="M 93.5,214.5 C 92.4324,215.434 91.099,215.768 89.5,215.5C 88.5318,217.607 88.1984,219.941 88.5,222.5C 87.5269,220.052 87.1936,217.385 87.5,214.5C 89.5,214.5 91.5,214.5 93.5,214.5 Z"/></g>
<g><path style="opacity:1" fill="#f5bbb8" d="M 564.5,211.5 C 566.245,213.033 567.245,215.033 567.5,217.5C 565.755,215.967 564.755,213.967 564.5,211.5 Z"/></g>
<g><path style="opacity:1" fill="#f5bdba" d="M 688.5,212.5 C 684.395,216.102 680.395,219.935 676.5,224C 675.255,224.791 673.922,225.291 672.5,225.5C 677.248,220.416 682.581,216.083 688.5,212.5 Z"/></g>
<g><path style="opacity:1" fill="#f09d99" d="M 567.5,217.5 C 569.048,217.821 569.715,218.821 569.5,220.5C 568.094,220.027 567.427,219.027 567.5,217.5 Z"/></g>
<g><path style="opacity:1" fill="#f2aaa6" d="M 897.5,214.5 C 897.245,216.967 896.245,218.967 894.5,220.5C 894.755,218.033 895.755,216.033 897.5,214.5 Z"/></g>
<g><path style="opacity:1" fill="#eb827d" d="M 89.5,215.5 C 89.5,217.833 89.5,220.167 89.5,222.5C 94.2303,222.717 98.8969,222.383 103.5,221.5C 103.389,222.117 103.056,222.617 102.5,223C 97.6478,223.815 92.9811,223.648 88.5,222.5C 88.1984,219.941 88.5318,217.607 89.5,215.5 Z"/></g>
<g><path style="opacity:1" fill="#f4b8b5" d="M 570.5,222.5 C 571.906,222.973 572.573,223.973 572.5,225.5C 571.094,225.027 570.427,224.027 570.5,222.5 Z"/></g>
<g><path style="opacity:1" fill="#f3aeab" d="M 894.5,220.5 C 893.277,224.049 891.277,227.049 888.5,229.5C 889.723,225.951 891.723,222.951 894.5,220.5 Z"/></g>
<g><path style="opacity:1" fill="#f7c7c5" d="M 577.5,231.5 C 578.833,232.167 579.833,233.167 580.5,234.5C 578.5,234.5 577.5,233.5 577.5,231.5 Z"/></g>
<g><path style="opacity:1" fill="#f8d1d0" d="M 888.5,229.5 C 884.763,235.572 879.763,240.239 873.5,243.5C 878.52,238.812 883.52,234.145 888.5,229.5 Z"/></g>
<g><path style="opacity:1" fill="#f5bfbd" d="M 580.5,234.5 C 581.833,235.167 582.833,236.167 583.5,237.5C 581.5,237.5 580.5,236.5 580.5,234.5 Z"/></g>
<g><path style="opacity:1" fill="#f5bfbd" d="M 583.5,237.5 C 584.833,238.167 585.833,239.167 586.5,240.5C 584.5,240.5 583.5,239.5 583.5,237.5 Z"/></g>
<g><path style="opacity:1" fill="#f7c8c6" d="M 671.5,226.5 C 671.461,227.583 671.127,228.583 670.5,229.5C 665.682,234.301 661.349,239.301 657.5,244.5C 661.027,237.636 665.694,231.636 671.5,226.5 Z"/></g>
<g><path style="opacity:1" fill="#f5bfbd" d="M 805.5,243.5 C 806.906,243.973 807.573,244.973 807.5,246.5C 806.094,246.027 805.427,245.027 805.5,243.5 Z"/></g>
<g><path style="opacity:1" fill="#f5bfbd" d="M 657.5,244.5 C 657.573,246.027 656.906,247.027 655.5,247.5C 655.427,245.973 656.094,244.973 657.5,244.5 Z"/></g>
<g><path style="opacity:1" fill="#f4bbb8" d="M 807.5,246.5 C 808.906,246.973 809.573,247.973 809.5,249.5C 808.094,249.027 807.427,248.027 807.5,246.5 Z"/></g>
<g><path style="opacity:1" fill="#f6c5c4" d="M 869.5,247.5 C 868.415,249.587 866.749,250.92 864.5,251.5C 865.585,249.413 867.251,248.08 869.5,247.5 Z"/></g>
<g><path style="opacity:1" fill="#f6bdba" d="M 655.5,247.5 C 654.702,249.966 653.369,251.966 651.5,253.5C 651.845,250.802 653.178,248.802 655.5,247.5 Z"/></g>
<g><path style="opacity:1" fill="#f6c2bf" d="M 810.5,251.5 C 811.906,251.973 812.573,252.973 812.5,254.5C 811.094,254.027 810.427,253.027 810.5,251.5 Z"/></g>
<g><path style="opacity:1" fill="#f9d0ce" d="M 864.5,251.5 C 862.343,255.607 859.009,258.273 854.5,259.5C 857.207,256.135 860.54,253.468 864.5,251.5 Z"/></g>
<g><path style="opacity:1" fill="#f2aaa7" d="M 651.5,253.5 C 651.245,255.967 650.245,257.967 648.5,259.5C 648.755,257.033 649.755,255.033 651.5,253.5 Z"/></g>
<g><path style="opacity:1" fill="#f09b97" d="M 816.5,262.5 C 817.906,262.973 818.573,263.973 818.5,265.5C 817.094,265.027 816.427,264.027 816.5,262.5 Z"/></g>
<g><path style="opacity:1" fill="#f8cecc" d="M 648.5,260.5 C 646.848,265.036 645.348,269.702 644,274.5C 643.617,275.056 643.117,275.389 642.5,275.5C 643.201,269.795 645.201,264.795 648.5,260.5 Z"/></g>
<g><path style="opacity:1" fill="#f6c3c0" d="M 850.5,262.5 C 849.008,265.323 846.674,266.99 843.5,267.5C 845.55,265.453 847.883,263.786 850.5,262.5 Z"/></g>
<g><path style="opacity:1" fill="#ed8985" d="M 818.5,266.5 C 820.693,268.522 821.693,271.189 821.5,274.5C 821.167,274.5 820.833,274.5 820.5,274.5C 819.833,271.833 819.167,269.167 818.5,266.5 Z"/></g>
<g><path style="opacity:1" fill="#f6c3c0" d="M 839.5,270.5 C 839.5,272.5 838.5,273.5 836.5,273.5C 837.167,272.167 838.167,271.167 839.5,270.5 Z"/></g>
<g><path style="opacity:1" fill="#ee9490" d="M 642.5,275.5 C 641.962,277.117 641.629,278.784 641.5,280.5C 641.167,280.5 640.833,280.5 640.5,280.5C 640.12,278.302 640.787,276.635 642.5,275.5 Z"/></g>
<g><path style="opacity:1" fill="#f3b5b2" d="M 833.5,276.5 C 833.573,278.027 832.906,279.027 831.5,279.5C 831.427,277.973 832.094,276.973 833.5,276.5 Z"/></g>
<g><path style="opacity:1" fill="#f7c8c6" d="M 820.5,274.5 C 820.833,274.5 821.167,274.5 821.5,274.5C 822.301,276.042 822.634,277.708 822.5,279.5C 820.787,278.365 820.12,276.698 820.5,274.5 Z"/></g>
<g><path style="opacity:1" fill="#f7c8c5" d="M 629.5,276.5 C 631.587,277.585 632.92,279.251 633.5,281.5C 631.413,280.415 630.08,278.749 629.5,276.5 Z"/></g>
<g><path style="opacity:1" fill="#f4b8b5" d="M 633.5,281.5 C 634.906,281.973 635.573,282.973 635.5,284.5C 634.094,284.027 633.427,283.027 633.5,281.5 Z"/></g>
<g><path style="opacity:1" fill="#f6c5c2" d="M 640.5,280.5 C 640.833,280.5 641.167,280.5 641.5,280.5C 641.192,284.36 640.525,288.026 639.5,291.5C 639.323,287.766 639.656,284.099 640.5,280.5 Z"/></g>
<g><path style="opacity:1" fill="#f6c5c3" d="M 635.5,284.5 C 636.537,285.93 637.204,287.597 637.5,289.5C 635.787,288.365 635.12,286.698 635.5,284.5 Z"/></g>
<g><path style="opacity:1" fill="#f2a6a3" d="M 823.5,280.5 C 824.321,283.641 824.821,286.975 825,290.5C 825.586,287.981 826.753,285.981 828.5,284.5C 828.005,286.482 827.505,288.482 827,290.5C 825.989,291.337 824.822,291.67 823.5,291.5C 823.5,287.833 823.5,284.167 823.5,280.5 Z"/></g>
</svg>
